:SAMPLES-PER-SECOND 30
:FULLY-SPECIFIED
:DEGREES
49
root  -8.83632 39.694 -10.2034 171.385 -61.7209 -171.537
RightUpLeg  -10.3609 -20.9635 1.22629
RightLeg  21.4397 -2.70344 1.08624
RightFoot  -8.93322 -0.0519689 -0.430061
RightToes  0.000482159 0.542163 -0.142577
Spine  15.6244 -2.76972 10.4208
Spine1  11.6142 -1.67177 1.58733
HEad  13.8227 8.97934 -8.46425
LeftShoulder1  8.23426 -12.2699 -45.5068
LeftArm  -8.65645 6.40564 -29.462
LeftForeArm  22.9671 -23.3156 -3.81309
LeftHand  -0.25398 0.0180481 5.50724
RightShoulder  4.82125 8.81763 33.1868
RightArm  -4.5482 -2.83815 34.754
RightForeArm  -3.09475 26.1663 5.76616
RightHand  -1.55121 3.88545 -19.5614
LeftUpLeg  -13.7221 9.70485 9.71449
LeftLeg  49.8307 5.50001 7.35208
LeftFoot  -4.6903 0.348999 -5.48339
LeftToes  1.06247e-005 4.65855e-005 -8.18501e-006
50
root  -9.61052 39.9285 -10.9824 173.128 -62.0993 -173.294
RightUpLeg  -7.46778 -18.4412 -0.403382
RightLeg  19.4392 -5.4238 1.8465
RightFoot  -9.68104 -0.0603473 -0.356414
RightToes  0.000482159 0.542163 -0.142577
Spine  15.3676 -2.16687 10.3462
Spine1  11.7562 -0.912536 0.670435
HEad  14.0377 8.07456 -8.5851
LeftShoulder1  8.2181 -12.2481 -45.4793
LeftArm  -8.44221 8.00192 -29.008
LeftForeArm  21.6515 -21.9481 -3.77981
LeftHand  -0.25398 0.0180481 5.50724
RightShoulder  4.7537 8.65803 33.1448
RightArm  -5.37824 -1.28492 33.5908
RightForeArm  -2.79674 29.2362 6.49969
RightHand  -1.74285 4.4412 -20.7147
LeftUpLeg  -17.2655 10.3804 6.36632
LeftLeg  46.6227 7.6407 8.97391
LeftFoot  -5.56899 0.223633 -3.78633
LeftToes  1.06247e-005 4.65855e-005 -8.18501e-006
51
root  -10.4136 40.0996 -11.7466 174.699 -62.5115 -174.914
RightUpLeg  -4.59617 -15.9996 -1.69325
RightLeg  17.3968 -7.96002 2.49267
RightFoot  -10.6644 -0.0725526 0.174302
RightToes  0.000482159 0.542163 -0.142577
Spine  15.1202 -1.59814 10.3884
Spine1  11.8349 -0.0943481 -0.553789
HEad  14.3419 7.22337 -8.63206
LeftShoulder1  8.19905 -12.2618 -45.3292
LeftArm  -8.31443 9.62319 -28.5868
LeftForeArm  20.8799 -20.8084 -3.85801
LeftHand  -0.25398 0.0180481 5.50724
RightShoulder  4.70603 8.58509 32.9871
RightArm  -6.34027 -0.32695 32.7766
RightForeArm  -2.6113 31.7941 7.14032
RightHand  -1.90108 4.96515 -21.4422
LeftUpLeg  -19.7389 11.5021 2.98771
LeftLeg  40.2462 8.14003 7.72777
LeftFoot  -5.81192 0.198258 -3.38263
LeftToes  1.06247e-005 4.65855e-005 -8.18501e-006
52
root  -11.2591 40.1591 -12.4999 175.594 -62.9822 -175.776
RightUpLeg  -1.98386 -13.9568 -2.30987
RightLeg  15.798 -10.1719 2.9053
RightFoot  -11.7287 -0.076372 0.999046
RightToes  0.000482159 0.542163 -0.142577
Spine  14.905 -1.13296 10.7557
Spine1  11.8231 0.680055 -1.81062
HEad  14.7236 6.58233 -8.66357
LeftShoulder1  8.21574 -12.3028 -45.3026
LeftArm  -8.19939 11.1908 -28.011
LeftForeArm  20.6331 -19.8148 -3.96972
LeftHand  -0.25398 0.0180481 5.50724
RightShoulder  4.69341 8.60506 32.8189
RightArm  -6.95466 0.385567 32.1407
RightForeArm  -2.49814 33.4799 7.58624
RightHand  -1.96557 5.27859 -21.5202
LeftUpLeg  -21.2795 13.9813 -0.310816
LeftLeg  31.5832 6.5716 4.72762
LeftFoot  -5.19991 0.288291 -4.772
LeftToes  1.06247e-005 4.65855e-005 -8.18501e-006
53
root  -12.1584 40.1395 -13.2447 175.567 -63.4541 -175.665
RightUpLeg  0.468733 -12.1963 -2.20692
RightLeg  14.6032 -12.3985 3.10716
RightFoot  -12.6879 -0.0729975 1.16466
RightToes  0.000482159 0.542163 -0.142577
Spine  14.698 -0.789464 11.5284
Spine1  11.9314 1.41315 -3.05133
HEad  14.9166 6.08335 -8.59692
LeftShoulder1  8.26713 -12.3737 -45.386
LeftArm  -8.3456 12.6808 -27.4479
LeftForeArm  20.7259 -18.8394 -4.09176
LeftHand  -0.25398 0.0180481 5.50724
RightShoulder  4.68798 8.64462 32.6482
RightArm  -6.97782 1.18585 31.6533
RightForeArm  -2.64821 34.185 7.79015
RightHand  -1.95863 5.33277 -21.3438
LeftUpLeg  -22.1671 18.948 -4.02076
LeftLeg  21.6922 3.60863 2.10757
LeftFoot  -3.85449 0.383254 -5.52203
LeftToes  1.06247e-005 4.65855e-005 -8.18501e-006
54
root  -13.1094 40.0743 -13.985 174.827 -63.7973 -175.076
RightUpLeg  3.2854 -10.8365 -1.77415
RightLeg  13.3527 -14.2461 3.22321
RightFoot  -13.8373 -0.0700706 1.06103
RightToes  0.000482159 0.542163 -0.142577
Spine  14.587 -0.5384 12.2699
Spine1  12.41 2.1311 -4.24231
HEad  14.9376 5.71462 -8.32334
LeftShoulder1  8.31496 -12.4597 -45.4037
LeftArm  -8.80046 14.1405 -27.1325
LeftForeArm  20.7496 -17.8695 -4.2159
LeftHand  -0.25398 0.0180481 5.50724
RightShoulder  4.70962 8.73893 32.5276
RightArm  -6.42558 2.20366 31.3309
RightForeArm  -2.87486 33.8638 7.71419
RightHand  -1.94833 5.3607 -21.1839
LeftUpLeg  -21.7485 20.472 -5.7271
LeftLeg  11.5743 5.88952 -0.90742
LeftFoot  -2.0433 0.421348 -5.04072
LeftToes  1.06247e-005 4.65855e-005 -8.18501e-006
55
root  -14.1189 39.9121 -14.74 173.593 -64.2046 -174.318
RightUpLeg  6.49094 -10.2889 -1.39619
RightLeg  12.4168 -15.0546 3.29295
RightFoot  -15.4034 -0.0383568 1.82175
RightToes  0.000482159 0.542163 -0.142577
Spine  14.5308 -0.388462 12.4778
Spine1  13.1622 2.6194 -5.00511
HEad  15.1272 5.60905 -7.8809
LeftShoulder1  8.31905 -12.519 -45.2523
LeftArm  -9.42602 15.5384 -27.1155
LeftForeArm  20.5234 -16.7924 -4.35853
LeftHand  -0.25398 0.0180481 5.50724
RightShoulder  4.78223 8.93981 32.4902
RightArm  -5.39142 3.39753 31.3051
RightForeArm  -2.78836 32.4063 7.31465
RightHand  -1.94807 5.51655 -20.8947
LeftUpLeg  -18.8752 7.31678 -0.528862
LeftLeg  1.99026 24.3503 -6.93022
LeftFoot  -0.639328 0.443685 -4.68644
LeftToes  1.06247e-005 4.65855e-005 -8.18501e-006
56
root  -15.214 39.6218 -15.5391 171.939 -65.0135 -173.207
RightUpLeg  9.42763 -11.0371 -1.18563
RightLeg  12.8579 -14.8156 3.14228
RightFoot  -17.0455 0.0241382 2.82887
RightToes  0.000482159 0.542163 -0.142577
Spine  14.2641 -0.30306 12.0524
Spine1  13.86 2.68069 -4.99416
HEad  15.6421 5.68241 -7.31641
LeftShoulder1  8.25283 -12.5271 -44.8536
LeftArm  -10.2802 16.8047 -27.3988
LeftForeArm  20.4537 -15.4784 -4.49659
LeftHand  -0.25398 0.0180481 5.50724
RightShoulder  4.85543 9.14316 32.451
RightArm  -4.05839 4.394 31.7536
RightForeArm  -2.39916 30.1986 6.71943
RightHand  -1.91427 5.62388 -20.3546
LeftUpLeg  -18.119 3.41858 0.101182
LeftLeg  -3.22533 31.8412 -9.82868
LeftFoot  -0.437563 0.481974 -5.01746
LeftToes  1.06247e-005 4.65855e-005 -8.18501e-006
